<svg xmlns="http://www.w3.org/2000/svg" xmlns:xlink="http://www.w3.org/1999/xlink" viewBox="0 0 567.04 118.9"><defs><style>.cls-1{isolation:isolate;}.cls-2{fill:#5a5a5a;}.cls-3{fill:#0b8caa;}.cls-4{fill:#3adbd7;}.cls-5{fill:#0ba6d6;}.cls-6{opacity:0.14;fill:url(#linear-gradient);}.cls-7,.cls-8{fill:#fff;}.cls-8{mix-blend-mode:soft-light;}</style><linearGradient id="linear-gradient" x1="36.29" y1="115.6" x2="123.82" y2="115.6" gradientUnits="userSpaceOnUse"><stop offset="0" stop-color="#6afcff"/><stop offset="0.65" stop-color="#2ab4ff"/><stop offset="1" stop-color="#2db8ff"/></linearGradient></defs><title>ertino</title><g class="cls-1"><g id="Layer_1" data-name="Layer 1"><path class="cls-2" d="M2848.23,402.07H2832V390.28h34.64q9.12,0,9.12-5.9t-9.12-5.9H2832V366.7h36.46q18.23,0,18.23,17.69t-18.23,17.69H2865l25.67,23.58H2873.9Z" transform="translate(-2553.35 -342.22)"/><path class="cls-2" d="M2921.11,378.49h-21.84l0-11.79h54.69v11.79H2932v47.16h-10.94Z" transform="translate(-2553.35 -342.22)"/><path class="cls-2" d="M2977.34,425.65H2966.4v-59h10.94Z" transform="translate(-2553.35 -342.22)"/><path class="cls-2" d="M3000.93,384.58v41.08H2990v-59h11.16l32.6,41.08V366.7h10.94v59h-11.12Z" transform="translate(-2553.35 -342.22)"/><path class="cls-2" d="M3099.38,425.65l-21,0v0q-21,0-21-19.67V386.3q0-19.67,21-19.67h21q21,0,21,19.67V406Q3120.4,425.61,3099.38,425.65Zm-2.1-11.8q10.51,0,10.51-9.84V388.26q0-9.84-10.51-9.84h-18.92q-8.41,0-8.41,9.84V404q0,9.84,10.51,9.84Z" transform="translate(-2553.35 -342.22)"/><path class="cls-3" d="M2717,390.43h-2.63l-59.34.08-24.36,0-47.26,0c.66-6.5,10.51-12.35,21.07-12.55,8.46-.17,16.94-.09,25.39-.1H2643c22.75,0,45.51,0,68.27-.13h.06A44.18,44.18,0,0,1,2717,390.43Z" transform="translate(-2553.35 -342.22)"/><path class="cls-4" d="M2717,400.47a44.31,44.31,0,0,1-5.6,12.64h-.06c-25-.15-50.08-.12-75.11-.15h-6.35c-8.46,0-16.94.06-25.39-.1-10.56-.2-20.41-6.05-21.07-12.56l47.26.06,37.29,0h0l41.86.06Z" transform="translate(-2553.35 -342.22)"/><path class="cls-5" d="M2703.43,368.56l0,0,0,.09,0,.1-5,0-17-.06-37.19-.11-13.62,0-19.49,0h-.78c-19.65.09-31.21,6-38.35,19.41-.54,1-2,2.43-3.18,2.49-4.85.28-9.72.09-15.35.08h0c.11-.4.22-.8.31-1.18a.19.19,0,0,0,0-.08c.24-.93.44-1.78.65-2.58a.31.31,0,0,1,0-.09,20.37,20.37,0,0,1,.83-2.56c0-.13.11-.26.17-.38s.17-.42.27-.64a34.77,34.77,0,0,1,3.58-6.15,35.27,35.27,0,0,1,2.31-2.89c.21-.24.41-.47.63-.69s.25-.28.37-.4q.4-.43.83-.86l.32-.3c.77-.75,1.56-1.47,2.39-2.16.61-.53,1.19-1,1.76-1.46a.39.39,0,0,1,.1-.08l.93-.7c1-.68,2-1.35,3.08-2,1.34-.8,2.7-1.59,4.13-2.33l1.44-.72.09,0a64.15,64.15,0,0,1,9.65-3.64h0l.37-.11.09,0c.24,0,.45-.11.68-.18l.11,0,.17,0,.28-.07a1.74,1.74,0,0,0,.31-.08,75.24,75.24,0,0,1,7.5-1.52h.14c4.27-.5,8.12-.59,8.12-.59h11.47a12.76,12.76,0,0,0,1.37-.06h6.7a34.85,34.85,0,0,1,3.26-3.77,32.88,32.88,0,0,1,8-5.86c.26-.13.52-.27.76-.4s.62-.29.92-.43l.59-.27.3-.14c.39-.17.78-.33,1.17-.47s1-.37,1.44-.53a33.34,33.34,0,0,1,3.6-1,36.13,36.13,0,0,1,6-.71h1.2l.68,0h.19a30,30,0,0,1,4.33.4l1.18.2.94.2c.3.07.6.13.9.21.53.14,1.06.27,1.56.43s.9.28,1.33.44a33.65,33.65,0,0,1,8.56,4.53c.48.35.95.7,1.42,1.09a.35.35,0,0,1,.1.08c.71.59,1.39,1.19,2.05,1.82a32.5,32.5,0,0,1,3.44,3.92q.18.21.33.41a34.29,34.29,0,0,1,3.79.81l.95.28a.69.69,0,0,1,.14,0,48.87,48.87,0,0,1,11.66,5.68,2.24,2.24,0,0,1,.28.18c.46.28.92.57,1.38.86s.62.37.93.56c1,.62,1.9,1.28,2.82,2l.32.25c.36.27.71.55,1.06.83l0,0C2702.56,367.81,2703,368.19,2703.43,368.56Z" transform="translate(-2553.35 -342.22)"/><path class="cls-5" d="M2698.32,422.13l-54.15.17-33.1.09c-20.12.05-31.89-5.86-39.13-19.42-.54-1-2-2.44-3.19-2.5-4.85-.27-9.74-.09-15.4-.08a61.57,61.57,0,0,0,1.83,6.49c6,14.77,23.24,25.46,44.05,27.85a39.06,39.06,0,0,0,47.4.23c5.72,0,11.43,0,17.14.11h14c8-1,13.58-4.46,19.21-8l.93-.57a44.82,44.82,0,0,0,5.52-4.18l-.08-.22Z" transform="translate(-2553.35 -342.22)"/><ellipse class="cls-6" cx="80.05" cy="115.6" rx="43.76" ry="3.3"/><path class="cls-7" d="M2553.47,390.22l-.12.34C2553.36,390.65,2553.4,390.52,2553.47,390.22Z" transform="translate(-2553.35 -342.22)"/><path class="cls-8" d="M2703.43,368.56l0,0,0,.09,0,.1-5,0-17-.06-37.19-.11-13.62,0a67.15,67.15,0,0,0-19.39-6.87l-1-.21c-42.14-8.19-55.44,25.3-56.77,29,.06-.22.22-.77.3-1.16a.19.19,0,0,0,0-.08c.15-.67.36-1.54.65-2.58a.31.31,0,0,1,0-.09,29.68,29.68,0,0,1,1-2.94c.09-.21.17-.42.27-.64a34.77,34.77,0,0,1,3.58-6.15,35.27,35.27,0,0,1,2.31-2.89c.21-.24.41-.47.63-.69s.25-.28.37-.4q.4-.43.83-.86l.32-.3.72-.63c.57-.54,1.13-1.06,1.67-1.53s1.19-1,1.76-1.46a.39.39,0,0,1,.1-.08l.93-.7c1-.68,2-1.35,3.08-2,1.36-.77,2.71-1.58,4.13-2.33l1.44-.72.09,0a63.43,63.43,0,0,1,8.85-3.36c.25-.07.51-.19.8-.29h0l.28-.09.1,0,.09,0c.24,0,.45-.11.68-.18l.11,0,.17,0,.28-.07a1.74,1.74,0,0,0,.31-.08,75.24,75.24,0,0,1,7.5-1.52h.14c4.27-.5,8.12-.59,8.12-.59h11.47a12.76,12.76,0,0,0,1.37-.06h6.7a34.85,34.85,0,0,1,3.26-3.77,13.67,13.67,0,0,0,1.09-.92,35.11,35.11,0,0,1,6.89-4.94c.26-.13.52-.27.76-.4s.62-.29.92-.43l.59-.27.3-.14c.39-.17.78-.33,1.17-.47s1-.37,1.44-.53a33.34,33.34,0,0,1,3.6-1,30.51,30.51,0,0,1,6-.71h1.2l.68,0h.19l.56.06a37.38,37.38,0,0,1,3.77.35l1.18.2.94.2c.3.07.6.13.9.21.53.14,1.06.27,1.56.43s.9.28,1.33.44a31.55,31.55,0,0,1,8.56,4.53c.48.35.95.7,1.42,1.09a.35.35,0,0,1,.1.08c.76.61,1.44,1.22,2.05,1.82a32.5,32.5,0,0,1,3.44,3.92q.18.21.33.41a34.29,34.29,0,0,1,3.79.81c.31.11.63.19.95.28a.69.69,0,0,1,.14,0,48.87,48.87,0,0,1,11.66,5.68,2.24,2.24,0,0,1,.28.18l.6.41c1.47.88,3,1.86,4.53,3l.32.25c.36.27.71.55,1.06.83l0,0C2702.56,367.81,2703,368.19,2703.43,368.56Z" transform="translate(-2553.35 -342.22)"/><path class="cls-8" d="M2667.94,400.4l41.86.06a18.25,18.25,0,0,1-11.49,6.08,44.48,44.48,0,0,1-9.18.22C2680.13,405.58,2673.38,403.32,2667.94,400.4Z" transform="translate(-2553.35 -342.22)"/><path class="cls-8" d="M2714.34,390.43l-59.34.08c-4.07-4.07-7.66-8.45-12-12.58,22.75,0,45.51,0,68.27-.13h0l0,.06a1.11,1.11,0,0,0,.12.19A18.17,18.17,0,0,1,2714.34,390.43Z" transform="translate(-2553.35 -342.22)"/><path class="cls-3" d="M2819.13,390.91l-7,0q-15.3,0-30.37.07l-4,0c-2.5,0-5,0-7.5,0l-21.58,0h0c1.15-6,5.45-12.17,5.45-12.17h60.79A11.17,11.17,0,0,0,2814,377h0l-.14-.22c-.48-.81-.93-1.49-.93-1.49h0a18,18,0,0,0-13.16-8.34q-10.77-.05-21.53-.14h-.91l-17.93-.1h-.3c-.39,0-.79,0-1.18,0a20.85,20.85,0,0,0-2.12.21c-6.2.82-10.8,4.05-14.24,10-.24.39-.47.81-.68,1.22a50.54,50.54,0,0,0-3.77,9.94c0,.12-.08.26-.12.39a.06.06,0,0,1,0,0,41.87,41.87,0,0,0,0,16.2,55.23,55.23,0,0,0,3.08,8.6s0,.05,0,.09c.41.88.85,1.7,1.3,2.47,3.47,6,8.08,9.22,14.29,10,.71.1,1.44.17,2.2.21.38,0,.74,0,1.12,0h.26l18.12-.1h.73q10.86-.08,21.7-.14c5.87-.78,10.31-3.71,13.73-9.12a20.39,20.39,0,0,0,1.94-3.55H2754c-1.31-1.94-4.15-6.5-5.14-11.06,0-.15-.08-.27-.12-.41l21.61,0c2.47,0,4.94,0,7.42,0l4,0q15,.05,30.27.07l7.08,0a34.88,34.88,0,0,0,.38-5.08c0-.45,0-.89,0-1.32A39.13,39.13,0,0,0,2819.13,390.91Z" transform="translate(-2553.35 -342.22)"/></g></g></svg>
